<svg xmlns="http://www.w3.org/2000/svg" width="15px" viewBox="0 0 122 122"><g stroke="none" stroke-width="1" fill="none" fill-rule="evenodd"><g transform="translate(-790.000000, -156.000000)"><g transform="translate(791.000000, 157.000000)"><circle stroke="#000000" stroke-width="2" fill="#f9ee4f" transform="translate(60.000000, 60.000000) rotate(-90.000000) translate(-60.000000, -60.000000) " cx="60" cy="60" r="60"></circle><path d="M88.9004673,74.5566166 C89.8896984,75.5458477 90.4255319,76.7411686 90.4255319,78.1425793 C90.4255319,79.585208 89.9309164,80.7805289 88.9004673,81.7697599 L81.7697599,88.9004673 C80.7805289,89.8896984 79.54399,90.4255319 78.1425793,90.4255319 C76.7823866,90.4255319 75.5870657,89.9309164 74.5566166,88.9004673 L60.212766,74.5566166 L45.8689153,88.9004673 C44.8796842,89.8896984 43.6843633,90.4255319 42.2829526,90.4255319 C40.8403239,90.4255319 39.645003,89.9309164 38.655772,88.9004673 L31.5250646,81.7697599 C30.5358335,80.7805289 30,79.54399 30,78.1425793 C30,76.7823866 30.4946155,75.5870657 31.5250646,74.5566166 L45.8689153,60.212766 L31.5250646,45.8689153 C30.5358335,44.8796842 30,43.6843633 30,42.2829526 C30,40.8403239 30.4946155,39.645003 31.5250646,38.655772 L38.655772,31.5250646 C39.645003,30.5358335 40.8815419,30 42.2829526,30 C43.6431453,30 44.8384662,30.4946155 45.8689153,31.5250646 L60.212766,45.8689153 L74.5566166,31.5250646 C75.5458477,30.5358335 76.7411686,30 78.1425793,30 C79.585208,30 80.7805289,30.4946155 81.7697599,31.5250646 L88.9004673,38.655772 C89.8896984,39.645003 90.4255319,40.8815419 90.4255319,42.2829526 C90.4255319,43.6431453 89.9309164,44.8384662 88.9004673,45.8689153 L74.5566166,60.212766 L88.9004673,74.5566166 Z" fill="#666666"></path></g></g></g></svg>