<svg xmlns="http://www.w3.org/2000/svg" width="15px" height="15px" viewBox="0 0 122 122"><g stroke="none" stroke-width="1" fill="none" fill-rule="evenodd"><g transform="translate(-1005.000000, -96.000000)"><g id="normal" transform="translate(1006.000000, 97.000000)"><circle id="Oval" stroke="#58585A" stroke-width="2" fill="#009B4A" cx="60.0375" cy="59.9625" r="59.9625"></circle><path d="M93.575,48.4834132 L55.85,85.9834132 C53.9375,87.8959132 52.025,87.8959132 50.1125,87.8959132 C48.2,87.8959132 46.2875,87.8959132 44.375,85.9834132 L24.9125,66.7084132 C23,64.7959132 23,62.8834132 23,60.9709132 C23,59.0584132 23,57.1459132 24.9125,55.2334132 C26.825,53.3209132 28.7375,53.3209132 30.65,53.3209132 C32.5625,53.3209132 34.475,53.3209132 36.3875,55.2334132 L49.925,68.7709132 L82.775,35.9209132 C85.55,33.1459132 90.0875,31.0459132 94.4,35.9209132 C98.7875,40.6459132 97.925,44.4709132 93.575,48.4834132 Z" fill="#FFFFFF"></path></g></g></g></svg>